<svg xmlns="http://www.w3.org/2000/svg" id="Icon_-_Yellow" width="24" height="24" data-name="Icon - Yellow" version="1.1"><defs id="defs4"><filter id="filter966" width="1.192" height="1.189" x="-.08" y="-.08" style="color-interpolation-filters:sRGB"><feGaussianBlur id="feGaussianBlur968" stdDeviation=".001"/></filter><filter id="filter1613" width="1.355" height="1.354" x="-.161" y="-.162" style="color-interpolation-filters:sRGB"><feGaussianBlur id="feGaussianBlur1615" stdDeviation=".43"/></filter><style id="style2">.cls-2{fill:#eed923}</style></defs><g id="Icon_-_Yellow-2" data-name="Icon - Yellow" style="stroke-width:5.54728;stroke:#c6b30f;stroke-opacity:1" transform="translate(1.456 1.947) scale(.18027)"><path id="path16" d="M8 105.62a1.68 1.68 0 0 1-.68-.24 1.17 1.17 0 0 1-.43-1.9 4.46 4.46 0 0 1 2.2-1.27 19.94 19.94 0 0 0 3.58-1.31c1.59-.79 3.27-1.4 4.84-2.23 3.37-1.77 6.91-3.17 10.27-5a60.61 60.61 0 0 0 7.33-4.62c2.21-1.62 4.3-3.38 6.34-5.19 1.5-1.32 3-2.7 4.54-3.94a8.61 8.61 0 0 1 2.34-1.58 3.16 3.16 0 0 1 2.88.65A19.39 19.39 0 0 0 58.76 82a8.86 8.86 0 0 0 3.43-.19 16.37 16.37 0 0 0 4.67-1.61c.77-.43 1.52-.91 2.29-1.36 1.74-1 2.65-.5 4.06.63 1.77 1.41 7.89 6.74 9.25 7.94a43.53 43.53 0 0 0 3.72 2.75 55.65 55.65 0 0 0 8.57 4.93c2.21 1.06 4.47 2 6.65 3.13 3.3 1.69 6.74 3.08 10 4.79a8.84 8.84 0 0 1 1.73 1.16.6.6 0 0 1 0 .69 1.69 1.69 0 0 1-1.32.79z" class="cls-2" style="stroke-width:5.54728;stroke:#c6b30f;stroke-opacity:1"/><path id="path18" d="M119.4 92.34a.9.9 0 0 1-1.28.73 8.5 8.5 0 0 1-2-1.22c-1.77-1.2-3.49-2.47-5.25-3.69-4-2.77-8-5.51-11.93-8.28a58.73 58.73 0 0 0-8.3-4.47 70.11 70.11 0 0 0-6.71-2.48l-6.63-2.41a2.4 2.4 0 0 1-1.57-2.39 13.19 13.19 0 0 1 0-1.54 14 14 0 0 0-1.08-6.07 18.08 18.08 0 0 0-3.75-5.8 15.07 15.07 0 0 0-4.36-3c-1.56-.72-2-1.65-1.7-3.54.36-2.43.8-4.84 1.24-7.24.34-1.88.64-3.76 1-5.63a22.71 22.71 0 0 0 .37-3.77c.06-2.3.07-4.6 0-6.9 0-1.19 0-2.39-.11-3.58s-.61-5.92-.68-7c-.08-1.29-.84-9.42-1.13-11.38a4.51 4.51 0 0 1-.05-1.1 1.16 1.16 0 0 1 .71-1.17c.51-.19.86.09 1.21.36A8.33 8.33 0 0 1 68.79 3c2.07 3.25 3.78 6.72 5.82 10 1.5 2.42 2.79 5 4.28 7.41 2.17 3.54 4 7.26 6.21 10.79 1.41 2.29 2.71 4.67 4 7s2.61 4.41 3.9 6.6c1.11 1.92 2.2 3.86 3.31 5.77 1.11 1.91 2.34 4 3.5 6 .83 1.43 1.71 2.84 2.47 4.32.86 1.68 2 3.22 2.87 4.88.76 1.39 1.57 2.75 2.31 4.15 1 1.81 2.1 3.5 3.09 5.29.99 1.79 2.12 3.63 3.18 5.44 1.42 2.45 2.86 4.9 4.28 7.34a8.55 8.55 0 0 1 1.41 3.69 5 5 0 0 1-.02.66z" class="cls-2" style="stroke-width:5.54728;stroke:#c6b30f;stroke-opacity:1"/><path id="path20" d="M.07 90.75a12.43 12.43 0 0 1 1.81-3.53c1.17-1.86 2.19-3.81 3.31-5.7 1.12-1.89 2.27-3.77 3.33-5.7 1.06-1.93 2.23-3.74 3.28-5.65 1.05-1.91 2.38-4 3.56-6 1-1.73 2-3.46 3-5.22.75-1.37 1.61-2.68 2.4-4 1-1.7 1.9-3.44 2.94-5.11 1.26-2 2.52-4.07 3.67-6.16 1.25-2.29 2.65-4.48 3.94-6.75 1-1.75 2.05-3.49 3.06-5.24 1.01-1.75 2.06-3.71 3.2-5.5 1.27-2 2.44-4.07 3.59-6.13 1.15-2.06 2.44-4.2 3.67-6.3 1.6-2.76 3.17-5.6 4.85-8.32.84-1.46 1.59-2.91 2.53-4.28a2 2 0 0 1 1.24-.79c.49-.14 1 .46 1 1.2a34.91 34.91 0 0 1-.33 3.83c-.2 1.61-.87 9.11-1.07 10.88-.14 1-.16 1.94-.26 2.91-.1.97-.25 2.19-.39 3.28a15 15 0 0 0-.18 1.61c0 2.13-.1 4.23 0 6.32.05 1.25.26 2.47.38 3.7.11 1 .3 2 .45 3 .28 1.77.55 3.54.86 5.31.31 1.77.76 3.42.93 5.17a8.71 8.71 0 0 1 0 1.91 2.45 2.45 0 0 1-1.53 2 16.82 16.82 0 0 0-9.14 11.69A28.46 28.46 0 0 0 44 68a2.16 2.16 0 0 1-1.81 2.5c-3.53 1.21-7.06 2.4-10.57 3.67-1.54.55-3 1.31-4.5 2a61.9 61.9 0 0 0-9.51 5.48c-3.69 2.5-7.31 5.08-11 7.63-1.41 1-2.83 2-4.23 2.94a3.43 3.43 0 0 1-1 .46A1 1 0 0 1 .08 92a2.74 2.74 0 0 1-.01-1.25Z" class="cls-2" style="stroke-width:5.54728;stroke:#c6b30f;stroke-opacity:1"/><circle id="circle22" cx="59.82" cy="65.91" r="8.68" class="cls-2" style="stroke-width:5.54728;stroke:#c6b30f;stroke-opacity:1"/></g><path id="path10-6" d="M14.674 9.664c-2.789 0-5.05 2.216-5.049 4.95 0 2.732 2.26 4.948 5.049 4.949 1.02-.003 1.535-.14 2.374-.706l3.565 3.333 1.594-1.487-3.279-3.577c.639-.847.793-1.46.797-2.513 0-2.733-2.262-4.95-5.051-4.949z" style="fill-rule:evenodd;stroke:#000;stroke-width:2;stroke-dasharray:none;stroke-opacity:.20693655;fill:none;filter:url(#filter1613)"/><path id="path8" d="M9.357 14.475a4.71 4.71 0 0 0 4.71 4.71 4.71 4.71 0 0 0 4.71-4.71 4.71 4.71 0 0 0-4.71-4.71 4.71 4.71 0 0 0-4.71 4.71z" style="opacity:.8;fill:#e6e6e6;stroke:#505050;stroke-width:1.04;stroke-linecap:round;stroke-linejoin:round;stroke-dashoffset:7"/><path id="path10" fill="#ffcc30" stroke="#505050" stroke-linejoin="round" stroke-width="1.04" d="M18.456 17.256c0 1.18-1.18 1.18-1.18 1.18l4.12 4.12 1.18-1.18z" style="fill-rule:evenodd"/><path id="path12" stroke="#505050" stroke-linejoin="round" stroke-width="1.04" d="m19.356 18.156-1.18-1.18-1.18 1.18 1.18 1.18z" style="fill-rule:evenodd"/><path id="path14" fill="#fcffff" d="M16.956 11.656c-1.18-1.77-2.62-2-3.53-1.18-.917.823 1.18.589 2.36 1.77 1.18 1.18 0 3.53 1.18 3.53s1.18-2.36 0-4.12z" opacity=".7" style="fill-rule:evenodd"/><path id="path18-3" stroke="#fcffff" stroke-linecap="round" stroke-linejoin="round" stroke-width="1.04" d="m21.656 21.156-2.36-2.36" opacity=".5"/></svg>