<?xml version="1.0" encoding="UTF-8" standalone="no"?>
<svg
   width="24"
   height="24"
   version="1.1"
   id="svg7270"
   sodipodi:docname="Soar Icon_QGIS UI_May 2023_qgis-soar-search-blackBG.svg"
   inkscape:version="1.2.2 (b0a8486541, 2022-12-01)"
   xmlns:inkscape="http://www.inkscape.org/namespaces/inkscape"
   xmlns:sodipodi="http://sodipodi.sourceforge.net/DTD/sodipodi-0.dtd"
   xmlns="http://www.w3.org/2000/svg"
   xmlns:svg="http://www.w3.org/2000/svg">
  <sodipodi:namedview
     id="namedview7272"
     pagecolor="#ffffff"
     bordercolor="#000000"
     borderopacity="0.25"
     inkscape:showpageshadow="2"
     inkscape:pageopacity="0.0"
     inkscape:pagecheckerboard="0"
     inkscape:deskcolor="#d1d1d1"
     showgrid="false"
     inkscape:zoom="36.043707"
     inkscape:cx="14.16336"
     inkscape:cy="12.762283"
     inkscape:window-width="2560"
     inkscape:window-height="1403"
     inkscape:window-x="0"
     inkscape:window-y="0"
     inkscape:window-maximized="1"
     inkscape:current-layer="svg7270" />
  <defs
     id="defs7252">
    <radialGradient
       id="b"
       cx="98.360001"
       cy="86.019997"
       r="50.540001"
       fx="98.360001"
       fy="86.019997"
       gradientUnits="userSpaceOnUse">
      <stop
         offset="0"
         stop-color="#fff"
         id="stop7220" />
      <stop
         offset=".16"
         stop-color="#fbfbfb"
         id="stop7222" />
      <stop
         offset=".3"
         stop-color="#f1f1f1"
         id="stop7224" />
      <stop
         offset=".43"
         stop-color="#e0e0e0"
         id="stop7226" />
      <stop
         offset=".55"
         stop-color="#c8c7c7"
         id="stop7228" />
      <stop
         offset=".67"
         stop-color="#a9a7a8"
         id="stop7230" />
      <stop
         offset=".78"
         stop-color="#838181"
         id="stop7232" />
      <stop
         offset=".89"
         stop-color="#575454"
         id="stop7234" />
      <stop
         offset="1"
         stop-color="#242021"
         id="stop7236" />
      <stop
         offset="1"
         stop-color="#231f20"
         id="stop7238" />
    </radialGradient>
    <filter
       id="a"
       data-name="drop-shadow-3"
       filterUnits="userSpaceOnUse">
      <feOffset
         dx="2.14"
         dy="2.14"
         id="feOffset7241" />
      <feGaussianBlur
         result="f"
         stdDeviation="2.14"
         id="feGaussianBlur7243" />
      <feFlood
         flood-color="#231f20"
         flood-opacity=".75"
         id="feFlood7245" />
      <feComposite
         in2="f"
         operator="in"
         id="feComposite7247"
         result="result1" />
      <feComposite
         in="SourceGraphic"
         in2="result1"
         id="feComposite7249" />
    </filter>
  </defs>
  <g
     fill="#eed923"
     stroke="#231f20"
     data-name="Icon - Yellow"
     id="g7260"
     transform="matrix(0.17623188,0,0,0.17623188,-1.632006,-2.3975679)">
    <path
       d="m 26.31,129.3 c -0.25,0 -0.46,-0.14 -0.68,-0.24 -0.79,-0.33 -1,-1.27 -0.43,-1.9 0.6,-0.67 1.36,-1.03 2.2,-1.27 1.23,-0.34 2.43,-0.74 3.58,-1.31 1.59,-0.79 3.26,-1.4 4.84,-2.23 3.37,-1.77 6.91,-3.17 10.27,-4.96 a 60.61,60.61 0 0 0 7.33,-4.62 c 2.21,-1.62 4.29,-3.38 6.34,-5.19 1.5,-1.33 2.95,-2.71 4.53,-3.94 0.75,-0.58 1.43,-1.26 2.34,-1.59 1.08,-0.39 2.04,0.09 2.88,0.65 2.32,1.54 4.88,2.48 7.59,2.95 1.12,0.19 2.29,0.05 3.43,-0.2 1.62,-0.36 3.22,-0.77 4.68,-1.6 0.77,-0.44 1.52,-0.91 2.28,-1.36 1.74,-1.02 2.65,-0.5 4.07,0.63 1.76,1.41 7.89,6.74 9.24,7.93 1.16,1.02 2.46,1.86 3.72,2.76 2.69,1.92 5.59,3.5 8.57,4.93 2.21,1.06 4.47,2.01 6.65,3.12 3.3,1.69 6.74,3.08 10.03,4.79 0.63,0.33 1.3,0.77 1.73,1.16 0.16,0.15 0.14,0.44 0,0.69 -0.28,0.54 -1,0.79 -1.32,0.79 H 26.31 Z m 111.44,-13.28 c -0.14,0.54 -0.49,0.99 -1.27,0.73 -0.77,-0.25 -1.38,-0.77 -2.02,-1.21 -1.77,-1.21 -3.49,-2.47 -5.25,-3.7 -3.97,-2.76 -7.96,-5.51 -11.93,-8.28 -2.6,-1.81 -5.47,-3.11 -8.3,-4.47 -2.16,-1.04 -4.47,-1.67 -6.71,-2.48 -2.21,-0.8 -4.41,-1.61 -6.61,-2.41 -1.13,-0.41 -1.49,-1.32 -1.57,-2.4 -0.04,-0.51 -0.03,-1.02 0,-1.53 0.1,-2.11 -0.28,-4.13 -1.08,-6.07 -0.89,-2.16 -2.12,-4.14 -3.76,-5.8 -1.25,-1.27 -2.74,-2.28 -4.36,-3.04 -1.56,-0.72 -1.98,-1.65 -1.7,-3.55 0.36,-2.42 0.8,-4.83 1.24,-7.24 0.34,-1.87 0.64,-3.76 1,-5.63 0.23,-1.23 0.34,-2.5 0.37,-3.76 0.06,-2.3 0.07,-4.6 0,-6.9 -0.04,-1.19 -0.03,-2.39 -0.11,-3.58 -0.08,-1.17 -0.61,-5.92 -0.68,-7 -0.08,-1.3 -0.84,-9.42 -1.13,-11.38 -0.05,-0.36 -0.09,-0.74 -0.05,-1.1 0.05,-0.48 0.18,-0.93 0.73,-1.13 0.51,-0.19 0.86,0.09 1.21,0.36 0.66,0.53 0.96,1.55 1.39,2.23 2.07,3.26 3.78,6.72 5.82,10 1.51,2.42 2.79,4.98 4.28,7.41 2.17,3.54 4.03,7.25 6.21,10.78 1.42,2.29 2.71,4.67 4.04,7.02 1.25,2.21 2.58,4.39 3.86,6.59 1.11,1.92 2.2,3.85 3.31,5.77 1.16,2 2.34,3.99 3.5,5.99 0.83,1.43 1.71,2.84 2.47,4.32 0.86,1.69 1.96,3.23 2.87,4.89 0.76,1.39 1.58,2.75 2.31,4.14 0.95,1.81 2.1,3.51 3.09,5.29 1.02,1.83 2.11,3.63 3.17,5.45 1.43,2.45 2.86,4.89 4.29,7.34 0.67,1.15 1.31,2.32 1.41,3.69 0,0.04 0.02,0.51 -0.02,0.65 z M 18.43,114.44 c 0.32,-1.31 1.1,-2.41 1.81,-3.54 1.17,-1.86 2.19,-3.81 3.31,-5.7 1.12,-1.89 2.26,-3.77 3.32,-5.69 1.05,-1.91 2.23,-3.74 3.28,-5.65 1.13,-2.04 2.38,-4.01 3.56,-6.02 1.02,-1.73 2.03,-3.46 2.99,-5.22 0.75,-1.38 1.61,-2.68 2.4,-4.03 0.99,-1.7 1.91,-3.44 2.95,-5.11 1.26,-2.03 2.51,-4.07 3.66,-6.16 1.26,-2.28 2.65,-4.48 3.94,-6.74 1,-1.76 2.05,-3.49 3.06,-5.25 1.06,-1.84 2.06,-3.71 3.2,-5.5 1.28,-2 2.44,-4.07 3.6,-6.13 1.19,-2.12 2.44,-4.2 3.66,-6.3 1.61,-2.77 3.16,-5.55 4.86,-8.28 0.85,-1.46 1.6,-2.91 2.54,-4.28 0.32,-0.46 0.76,-0.66 1.23,-0.79 0.5,-0.14 0.97,0.46 1.03,1.2 0.06,0.65 -0.25,3.19 -0.33,3.83 -0.2,1.61 -0.87,9.11 -1.07,10.88 -0.14,0.96 -0.16,1.94 -0.26,2.9 -0.11,1.1 -0.26,2.19 -0.39,3.29 -0.06,0.54 -0.18,1.07 -0.19,1.61 -0.03,2.13 -0.09,4.23 -0.02,6.31 0.05,1.25 0.26,2.47 0.38,3.7 0.1,1 0.29,1.98 0.45,2.97 0.28,1.77 0.55,3.55 0.85,5.31 0.3,1.73 0.77,3.42 0.94,5.17 0.06,0.64 0.08,1.26 0,1.9 -0.12,1.01 -0.7,1.59 -1.53,2 -1.97,0.98 -3.74,2.24 -5.18,3.89 -1.97,2.26 -3.4,4.8 -3.95,7.8 -0.29,1.6 -0.19,3.19 -0.22,4.79 -0.02,1.5 -0.38,2 -1.81,2.5 -3.53,1.21 -7.06,2.4 -10.57,3.67 -1.54,0.55 -3,1.31 -4.5,1.97 -3.37,1.48 -6.48,3.43 -9.51,5.48 -3.69,2.5 -7.32,5.08 -10.97,7.63 -1.41,0.98 -2.82,1.95 -4.23,2.94 -0.31,0.22 -0.64,0.36 -0.99,0.46 -0.6,0.18 -1.14,-0.07 -1.32,-0.65 -0.1,-0.33 -0.09,-0.84 0,-1.2 z"
       id="path7256" />
    <circle
       cx="78.169998"
       cy="89.589996"
       r="8.6800003"
       id="circle7258" />
  </g>
  <g
     data-name="Layer 4"
     id="g7268"
     transform="matrix(0.17623188,0,0,0.17623188,-1.6846288,-2.3975679)">
    <circle
       cx="91.959999"
       cy="94.68"
       r="19.290001"
       fill="url(#b)"
       fill-opacity="0.9"
       id="circle7264"
       style="fill:url(#b)" />
    <path
       fill="#4899d4"
       stroke="#231f20"
       stroke-miterlimit="10"
       stroke-width="1.07"
       d="m 136.71,135.18 -4.27,4.27 c -1.4,1.42 -3.69,1.42 -5.11,0 L 112.3,124.42 c -0.68,-0.68 -1.06,-1.6 -1.06,-2.56 v -2.46 a 31.187,31.187 0 0 1 -19.29,6.63 C 74.63,126.03 60.6,112 60.6,94.68 c 0,-17.32 14.03,-31.35 31.35,-31.35 17.32,0 31.35,14.03 31.35,31.35 0,7.28 -2.47,13.97 -6.63,19.29 h 2.46 c 0.97,0 1.88,0.38 2.56,1.06 l 15.03,15.03 c 1.4,1.42 1.4,3.71 -0.01,5.12 z m -25.46,-40.5 c 0,-10.67 -8.64,-19.29 -19.29,-19.29 -10.65,0 -19.29,8.64 -19.29,19.29 0,10.65 8.64,19.29 19.29,19.29 10.65,0 19.29,-8.64 19.29,-19.29 z"
       id="path7266" />
  </g>
</svg>
