<svg id="Icon_-_Yellow" data-name="Icon - Yellow" xmlns="http://www.w3.org/2000/svg" viewBox="0 0 579.3 105.83"><defs><style>.cls-1{fill:#010101;}.cls-2{fill:#eed923;}</style></defs><path class="cls-1" d="M227.6,55a29.71,29.71,0,0,0-8.42-6.35,22.74,22.74,0,0,0-10.31-2.44h-1.54V59.75l1.25.24c4.24.8,7.2,2.48,9.06,5.15a17.92,17.92,0,0,1,2.85,10.44,17.32,17.32,0,0,1-4.06,11.85c-2.68,3-6.66,4.52-12.17,4.52H143.68v13.33h64.86a25.3,25.3,0,0,0,10.32-2.17,26,26,0,0,0,8.56-6,29.22,29.22,0,0,0,5.82-9.36,32.83,32.83,0,0,0,2.16-12.12,31,31,0,0,0-2.07-11.22A29.44,29.44,0,0,0,227.6,55Z"/><path class="cls-1" d="M149.84,50.89a29.34,29.34,0,0,0,8.42,6.35,22.56,22.56,0,0,0,10.31,2.45h1.54V46.3l-1.26-.24c-4.17-.79-7.21-2.54-9-5.22A18.33,18.33,0,0,1,157,30.31c0-4.87,1.32-8.75,4.06-11.85s6.73-4.53,12.17-4.53h60.58V.6H168.9a25.72,25.72,0,0,0-10.49,2.17,26.45,26.45,0,0,0-8.56,6.05,28,28,0,0,0-5.74,9.38A34.05,34.05,0,0,0,142,30.31a30.85,30.85,0,0,0,2.07,11.3A29.45,29.45,0,0,0,149.84,50.89Z"/><path class="cls-1" d="M340.13,15.62a54.35,54.35,0,0,0-17-11.31,54.58,54.58,0,0,0-42,0,53.14,53.14,0,0,0-28.44,28.07,52,52,0,0,0,0,41.13,54,54,0,0,0,11.43,16.75,54.37,54.37,0,0,0,17,11.32,54.7,54.7,0,0,0,42,0,54.37,54.37,0,0,0,17-11.32,54,54,0,0,0,11.43-16.75,52,52,0,0,0,0-41.13A54,54,0,0,0,340.13,15.62Zm-38,76.17a37.88,37.88,0,0,1-15.26-3.13,40.94,40.94,0,0,1-21.18-20.8h0a35.44,35.44,0,0,1-3.15-14.76,36,36,0,0,1,3.16-14.76,40.55,40.55,0,0,1,8.56-12.48A42,42,0,0,1,287,17.3a37.77,37.77,0,0,1,15.34-3.21,37.21,37.21,0,0,1,15.25,3.21,42.52,42.52,0,0,1,12.62,8.56,40.9,40.9,0,0,1,8.56,12.48,36.26,36.26,0,0,1,3.15,14.76,35.47,35.47,0,0,1-3.15,14.76,40.55,40.55,0,0,1-8.63,12.32,42.49,42.49,0,0,1-12.7,8.48A38,38,0,0,1,302.13,91.79Z"/><polygon class="cls-1" points="361.26 105.28 434.43 105.28 425.79 92.76 382.9 92.76 413.33 31.11 450.56 105.28 465.83 105.28 413.31 1.76 361.26 105.28"/><path class="cls-1" d="M563.22,59.92a27.73,27.73,0,0,0,8.36-6.72,33.23,33.23,0,0,0,5.6-9.56,31.51,31.51,0,0,0,2.08-11.38,35.55,35.55,0,0,0-2.15-12.42,32.5,32.5,0,0,0-5.79-10,28.49,28.49,0,0,0-8.52-6.71A22.63,22.63,0,0,0,552.39.6h-66.5V105.28h14.58V13.93h49.79a10.05,10.05,0,0,1,5.66,1.63,15.87,15.87,0,0,1,4.42,4.3,22.47,22.47,0,0,1,3.84,12.24,24.14,24.14,0,0,1-.77,5.81,17.56,17.56,0,0,1-2.5,5.54,14.76,14.76,0,0,1-4.24,4.13,10.81,10.81,0,0,1-5.92,1.55H532.44l29,56.15h15.78L555.33,62.33A22.17,22.17,0,0,0,563.22,59.92Z"/><g id="Icon_-_Yellow-2" data-name="Icon - Yellow"><path class="cls-2" d="M8,105.62a1.68,1.68,0,0,1-.68-.24,1.17,1.17,0,0,1-.43-1.9,4.46,4.46,0,0,1,2.2-1.27,19.94,19.94,0,0,0,3.58-1.31c1.59-.79,3.27-1.4,4.84-2.23,3.37-1.77,6.91-3.17,10.27-5a60.61,60.61,0,0,0,7.33-4.62c2.21-1.62,4.3-3.38,6.34-5.19,1.5-1.32,3-2.7,4.54-3.94a8.61,8.61,0,0,1,2.34-1.58,3.16,3.16,0,0,1,2.88.65A19.39,19.39,0,0,0,58.76,82a8.86,8.86,0,0,0,3.43-.19,16.37,16.37,0,0,0,4.67-1.61c.77-.43,1.52-.91,2.29-1.36,1.74-1,2.65-.5,4.06.63,1.77,1.41,7.89,6.74,9.25,7.94a43.53,43.53,0,0,0,3.72,2.75,55.65,55.65,0,0,0,8.57,4.93c2.21,1.06,4.47,2,6.65,3.13,3.3,1.69,6.74,3.08,10,4.79a8.84,8.84,0,0,1,1.73,1.16.6.6,0,0,1,0,.69,1.69,1.69,0,0,1-1.32.79Z"/><path class="cls-2" d="M119.4,92.34a.9.9,0,0,1-1.28.73,8.5,8.5,0,0,1-2-1.22c-1.77-1.2-3.49-2.47-5.25-3.69-4-2.77-8-5.51-11.93-8.28a58.73,58.73,0,0,0-8.3-4.47,70.11,70.11,0,0,0-6.71-2.48L77.3,70.52a2.4,2.4,0,0,1-1.57-2.39,13.19,13.19,0,0,1,0-1.54,14,14,0,0,0-1.08-6.07,18.08,18.08,0,0,0-3.75-5.8,15.07,15.07,0,0,0-4.36-3c-1.56-.72-2-1.65-1.7-3.54.36-2.43.8-4.84,1.24-7.24.34-1.88.64-3.76,1-5.63a22.71,22.71,0,0,0,.37-3.77c.06-2.3.07-4.6,0-6.9,0-1.19,0-2.39-.11-3.58s-.61-5.92-.68-7c-.08-1.29-.84-9.42-1.13-11.38a4.51,4.51,0,0,1-.05-1.1A1.16,1.16,0,0,1,66.19.41c.51-.19.86.09,1.21.36A8.33,8.33,0,0,1,68.79,3c2.07,3.25,3.78,6.72,5.82,10,1.5,2.42,2.79,5,4.28,7.41,2.17,3.54,4,7.26,6.21,10.79,1.41,2.29,2.71,4.67,4,7S91.71,42.61,93,44.8c1.11,1.92,2.2,3.86,3.31,5.77s2.34,4,3.5,6c.83,1.43,1.71,2.84,2.47,4.32.86,1.68,2,3.22,2.87,4.88.76,1.39,1.57,2.75,2.31,4.15,1,1.81,2.1,3.5,3.09,5.29s2.12,3.63,3.18,5.44c1.42,2.45,2.86,4.9,4.28,7.34a8.55,8.55,0,0,1,1.41,3.69A5,5,0,0,1,119.4,92.34Z"/><path class="cls-2" d="M.07,90.75a12.43,12.43,0,0,1,1.81-3.53c1.17-1.86,2.19-3.81,3.31-5.7s2.27-3.77,3.33-5.7,2.23-3.74,3.28-5.65,2.38-4,3.56-6c1-1.73,2-3.46,3-5.22.75-1.37,1.61-2.68,2.4-4,1-1.7,1.9-3.44,2.94-5.11,1.26-2,2.52-4.07,3.67-6.16,1.25-2.29,2.65-4.48,3.94-6.75,1-1.75,2.05-3.49,3.06-5.24s2.06-3.71,3.2-5.5c1.27-2,2.44-4.07,3.59-6.13s2.44-4.2,3.67-6.3C46.43,11,48,8.16,49.68,5.44c.84-1.46,1.59-2.91,2.53-4.28A2,2,0,0,1,53.45.37c.49-.14,1,.46,1,1.2a34.91,34.91,0,0,1-.33,3.83c-.2,1.61-.87,9.11-1.07,10.88-.14,1-.16,1.94-.26,2.91s-.25,2.19-.39,3.28a15,15,0,0,0-.18,1.61c0,2.13-.1,4.23,0,6.32.05,1.25.26,2.47.38,3.7.11,1,.3,2,.45,3,.28,1.77.55,3.54.86,5.31s.76,3.42.93,5.17a8.71,8.71,0,0,1,0,1.91,2.45,2.45,0,0,1-1.53,2,16.82,16.82,0,0,0-9.14,11.69A28.46,28.46,0,0,0,44,68a2.16,2.16,0,0,1-1.81,2.5c-3.53,1.21-7.06,2.4-10.57,3.67-1.54.55-3,1.31-4.5,2a61.9,61.9,0,0,0-9.51,5.48c-3.69,2.5-7.31,5.08-11,7.63-1.41,1-2.83,2-4.23,2.94a3.43,3.43,0,0,1-1,.46A1,1,0,0,1,.08,92,2.74,2.74,0,0,1,.07,90.75Z"/><circle class="cls-2" cx="59.82" cy="65.91" r="8.68"/></g></svg>