<svg xmlns="http://www.w3.org/2000/svg" viewBox="0 0 579.24 105.72"><defs><style>.cls-1{fill:#fff;}.cls-2{fill:#eed923;}</style></defs><g id="Icon_-_Yellow_on_Black" data-name="Icon - Yellow on Black"><path class="cls-1" d="M227.55,54.92a29.37,29.37,0,0,0-8.41-6.36,22.74,22.74,0,0,0-10.31-2.44h-1.54V59.68l1.25.23c4.24.8,7.2,2.49,9.06,5.15a18,18,0,0,1,2.85,10.44,17.37,17.37,0,0,1-4.06,11.85c-2.68,3.05-6.66,4.53-12.17,4.53H143.64v13.33H208.5A25.3,25.3,0,0,0,218.82,103,26.2,26.2,0,0,0,227.38,97a29.22,29.22,0,0,0,5.82-9.36,32.85,32.85,0,0,0,2.16-12.13,31.3,31.3,0,0,0-2.07-11.22A29.13,29.13,0,0,0,227.55,54.92Z"/><path class="cls-1" d="M149.8,50.81a29.19,29.19,0,0,0,8.42,6.36,22.68,22.68,0,0,0,10.31,2.44h1.54V46.22L168.81,46c-4.23-.8-7.19-2.51-9.05-5.23a18.31,18.31,0,0,1-2.85-10.53c0-4.86,1.32-8.74,4.05-11.85s6.74-4.52,12.17-4.52h60.59V.53H168.86a25.88,25.88,0,0,0-10.49,2.16,26.35,26.35,0,0,0-8.56,6.05,28,28,0,0,0-5.74,9.39A34,34,0,0,0,142,30.23a30.91,30.91,0,0,0,2.08,11.31A29.29,29.29,0,0,0,149.8,50.81Z"/><path class="cls-1" d="M340.09,15.54a54.52,54.52,0,0,0-17-11.31,54.7,54.7,0,0,0-42,0,54.37,54.37,0,0,0-17,11.32A53.79,53.79,0,0,0,252.65,32.3h0a52,52,0,0,0,0,41.13,53.14,53.14,0,0,0,28.44,28.07,54.58,54.58,0,0,0,42,0,53.14,53.14,0,0,0,28.44-28.07,52,52,0,0,0,0-41.13A54.12,54.12,0,0,0,340.09,15.54Zm-38,76.17a38.08,38.08,0,0,1-15.26-3.12,40.94,40.94,0,0,1-21.17-20.81h0A35.39,35.39,0,0,1,262.5,53a36,36,0,0,1,3.16-14.76,40.55,40.55,0,0,1,8.56-12.48,41.89,41.89,0,0,1,12.7-8.56A37.69,37.69,0,0,1,302.25,14a37.21,37.21,0,0,1,15.25,3.21,42.27,42.27,0,0,1,12.62,8.56,40.9,40.9,0,0,1,8.56,12.48A36.23,36.23,0,0,1,341.83,53a35.43,35.43,0,0,1-3.15,14.75A40.46,40.46,0,0,1,330,80.1a42.27,42.27,0,0,1-12.7,8.49A38,38,0,0,1,302.08,91.71Z"/><polygon class="cls-1" points="361.22 105.21 434.39 105.21 425.75 92.68 382.86 92.68 413.29 31.04 450.52 105.21 465.79 105.21 413.27 1.68 361.22 105.21"/><path class="cls-1" d="M563.18,59.85a27.73,27.73,0,0,0,8.36-6.72,33.46,33.46,0,0,0,5.6-9.56,31.51,31.51,0,0,0,2.08-11.38,35.74,35.74,0,0,0-2.15-12.42,32.59,32.59,0,0,0-5.79-10,28.33,28.33,0,0,0-8.52-6.71A22.63,22.63,0,0,0,552.35.53h-66.5V105.21h14.58V13.86h49.79a10.07,10.07,0,0,1,5.65,1.62,16,16,0,0,1,4.43,4.31,21.39,21.39,0,0,1,2.84,5.93,21.84,21.84,0,0,1,1,6.3,24.22,24.22,0,0,1-.77,5.82,17.6,17.6,0,0,1-2.5,5.53,14.42,14.42,0,0,1-4.25,4.13,10.75,10.75,0,0,1-5.91,1.55H532.4l29.05,56.16h15.78l-21.94-43A22.15,22.15,0,0,0,563.18,59.85Z"/><g id="Icon_-_Yellow-2" data-name="Icon - Yellow"><path class="cls-2" d="M8,105.42a1.68,1.68,0,0,1-.68-.24,1.17,1.17,0,0,1-.43-1.9A4.54,4.54,0,0,1,9.05,102a19.94,19.94,0,0,0,3.58-1.31c1.59-.79,3.27-1.4,4.84-2.23,3.37-1.77,6.91-3.17,10.27-5a59.4,59.4,0,0,0,7.33-4.62c2.21-1.61,4.3-3.38,6.34-5.18,1.5-1.33,3-2.71,4.54-3.95a8.61,8.61,0,0,1,2.34-1.58,3.16,3.16,0,0,1,2.88.65,19.57,19.57,0,0,0,7.59,3,9.06,9.06,0,0,0,3.43-.2A16.52,16.52,0,0,0,66.87,80c.76-.44,1.51-.92,2.28-1.36,1.74-1,2.65-.5,4.07.63C75,80.65,81.1,86,82.46,87.18a45.89,45.89,0,0,0,3.72,2.76,56.42,56.42,0,0,0,8.57,4.92c2.21,1.06,4.47,2,6.65,3.13,3.3,1.69,6.74,3.08,10,4.79a9.3,9.3,0,0,1,1.73,1.16.61.61,0,0,1,0,.69,1.72,1.72,0,0,1-1.33.79Z"/><path class="cls-2" d="M119.4,92.14a.9.9,0,0,1-1.28.73,8.46,8.46,0,0,1-2-1.21c-1.76-1.21-3.49-2.48-5.25-3.7-4-2.76-8-5.51-11.93-8.28a58.73,58.73,0,0,0-8.3-4.47,70.11,70.11,0,0,0-6.71-2.48l-6.61-2.4a2.42,2.42,0,0,1-1.57-2.4,13.19,13.19,0,0,1,0-1.54,14,14,0,0,0-1.08-6.07,17.92,17.92,0,0,0-3.75-5.8,14.84,14.84,0,0,0-4.36-3c-1.56-.73-2-1.66-1.7-3.55.36-2.43.8-4.83,1.24-7.24.34-1.88.64-3.76,1-5.63a22.7,22.7,0,0,0,.37-3.76c.06-2.3.07-4.61,0-6.91,0-1.19,0-2.39-.11-3.57s-.61-5.92-.68-7c-.08-1.29-.84-9.41-1.13-11.38a4.49,4.49,0,0,1-.05-1.1A1.16,1.16,0,0,1,66.19.21,1.2,1.2,0,0,1,67.4.57a8.49,8.49,0,0,1,1.39,2.24c2.07,3.26,3.78,6.72,5.82,10,1.51,2.42,2.79,5,4.28,7.41,2.17,3.53,4,7.25,6.21,10.78,1.41,2.29,2.71,4.67,4,7s2.58,4.39,3.86,6.59c1.11,1.91,2.2,3.85,3.31,5.77s2.34,4,3.5,6c.83,1.43,1.71,2.84,2.47,4.32.86,1.68,2,3.23,2.87,4.88.76,1.39,1.57,2.75,2.31,4.15,1,1.81,2.1,3.5,3.09,5.29s2.12,3.63,3.18,5.45q2.15,3.66,4.28,7.34a8.45,8.45,0,0,1,1.41,3.69A4.89,4.89,0,0,1,119.4,92.14Z"/><path class="cls-2" d="M.07,90.56A12.35,12.35,0,0,1,1.88,87c1.17-1.86,2.19-3.81,3.31-5.7s2.27-3.77,3.33-5.69S10.75,71.88,11.8,70s2.38-4,3.56-6c1-1.72,2-3.45,3-5.21.75-1.38,1.61-2.68,2.4-4,1-1.7,1.9-3.44,2.94-5.11,1.27-2,2.52-4.07,3.67-6.16C28.61,41.15,30,39,31.3,36.7c1-1.76,2.05-3.5,3.06-5.25s2.06-3.71,3.2-5.5c1.27-2,2.44-4.07,3.59-6.13s2.44-4.2,3.67-6.3C46.43,10.75,48,8,49.68,5.24c.84-1.46,1.6-2.9,2.53-4.28A2,2,0,0,1,53.45.17c.49-.14,1,.46,1,1.2a37.55,37.55,0,0,1-.32,3.83c-.21,1.62-.88,9.11-1.08,10.89-.14,1-.16,1.93-.26,2.9s-.25,2.19-.39,3.28a14.86,14.86,0,0,0-.18,1.62c0,2.12-.09,4.22,0,6.31.05,1.25.26,2.47.38,3.7.11,1,.3,2,.45,3,.28,1.77.55,3.55.86,5.31s.76,3.42.93,5.18a8.62,8.62,0,0,1,0,1.9,2.45,2.45,0,0,1-1.53,2,16.54,16.54,0,0,0-5.18,3.89,16.32,16.32,0,0,0-4,7.8A28.5,28.5,0,0,0,44,67.75a2.16,2.16,0,0,1-1.81,2.5c-3.52,1.22-7.06,2.41-10.57,3.67-1.54.55-3,1.31-4.5,2a61.9,61.9,0,0,0-9.51,5.48c-3.69,2.5-7.31,5.09-11,7.63-1.41,1-2.83,2-4.23,2.94a3.08,3.08,0,0,1-1,.46,1,1,0,0,1-1.31-.64A2.7,2.7,0,0,1,.07,90.56Z"/><circle class="cls-2" cx="59.82" cy="65.71" r="8.68"/></g></g></svg>